<svg width="174" height="42" viewBox="0 0 174 42" fill="none" xmlns="http://www.w3.org/2000/svg">
<path d="M1.89819 0C1.89819 0 4.35959 0 6.81122 0C9.28238 0 11.734 0 11.734 0C14.9377 0 17.3308 0.791163 18.9424 2.35395C19.7433 3.13535 20.3391 4.09256 20.7396 5.24512C21.1401 6.37814 21.3452 7.69674 21.3354 9.2107C21.3354 9.2107 21.3354 10.3926 21.3256 12.1605C21.3256 13.9284 21.3159 16.2921 21.2963 18.646C21.2866 21.0098 21.267 23.3735 21.2573 25.1414C21.2475 26.9093 21.2377 28.0912 21.2377 28.0912C21.2182 29.6051 21.0033 30.9628 20.5931 32.1642C20.1828 33.3753 19.587 34.4302 18.7861 35.3581C17.1745 37.214 14.7814 38.4349 11.607 39.0209C11.607 39.0209 9.17494 39.5093 6.73308 39.9879C4.32052 40.4958 1.89819 41.0233 1.89819 41.0233C1.89819 41.0233 1.89819 38.4349 1.89819 34.606C1.89819 32.6819 1.89819 30.4451 1.89819 28.0423C1.89819 25.6395 1.89819 23.0609 1.89819 20.5019C1.89819 17.933 1.89819 15.374 1.89819 12.9614C1.89819 10.5684 1.89819 8.31209 1.89819 6.40744C1.89819 2.55907 1.89819 0 1.89819 0ZM11.5289 33.473C12.5642 33.2972 13.3749 32.8772 13.9121 32.1935C14.508 31.5293 14.801 30.533 14.801 29.2047C14.801 29.2047 14.8108 27.9642 14.8303 26.0791C14.8303 24.2037 14.8401 21.713 14.8596 19.2126C14.8694 16.7219 14.8694 14.2214 14.8791 12.346C14.8889 10.4707 14.8889 9.22046 14.8889 9.22046C14.8987 7.90186 14.6056 6.95442 14.0098 6.38791C13.4726 5.81163 12.6619 5.54791 11.6168 5.56744L8.32517 5.66512C8.32517 5.66512 8.32517 7.43302 8.32517 10.0898C8.32517 11.4181 8.32517 12.9712 8.3154 14.6316C8.3154 16.3019 8.32517 18.06 8.30564 19.8377C8.30564 21.6056 8.30564 23.3735 8.29587 25.0437C8.2861 26.7042 8.2861 28.2572 8.2861 29.5856C8.27633 32.2326 8.26657 34.0102 8.26657 34.0102L11.5289 33.473ZM34.8145 35.7879C31.6987 36.2177 29.3154 35.7879 27.7038 34.4693C26.9028 33.7856 26.2973 32.9065 25.8968 31.8126C25.5061 30.7381 25.3205 29.4488 25.3303 27.9642C25.3303 27.9642 25.3401 26.2158 25.3694 23.5884C25.3791 22.2795 25.3791 20.746 25.3889 19.1149C25.3987 17.474 25.4084 15.7256 25.4182 13.9674C25.428 12.2288 25.4377 10.4805 25.4475 8.83953C25.4475 7.20837 25.4573 5.66512 25.4475 4.35628C25.4573 1.7386 25.4573 0 25.4573 0H31.894C31.894 0 31.894 1.7093 31.894 4.31721C31.894 5.60651 31.8842 7.12046 31.8842 8.73209C31.8745 10.3633 31.8745 12.0823 31.8647 13.8209C31.8549 15.5498 31.8452 17.2786 31.8256 18.9C31.8159 20.5116 31.8159 22.0256 31.7963 23.3247C31.767 25.913 31.7475 27.6419 31.7475 27.6419C31.7377 28.8726 32.0112 29.7223 32.5387 30.2009C33.1345 30.6795 33.9452 30.8553 35.0001 30.7381C36.0549 30.6209 36.8559 30.2595 37.4028 29.6637C37.9987 29.0679 38.3112 28.1693 38.321 26.9874C38.321 26.9874 38.3308 25.2977 38.3601 22.7581C38.3698 21.4981 38.3894 20.0233 38.3894 18.4409C38.3991 16.8586 38.4187 15.1786 38.4284 13.4888C38.4382 11.7991 38.448 10.1093 38.448 8.52698C38.4577 6.94465 38.4675 5.46977 38.4675 4.20977C38.4675 1.67023 38.4675 0 38.4675 0H44.6796C44.6796 0 44.6796 1.6214 44.6796 4.06326C44.6796 5.27442 44.6698 6.71023 44.6698 8.23395C44.6601 9.75767 44.6601 11.3888 44.6503 13.02C44.6405 14.6414 44.6308 16.2726 44.621 17.7963C44.6015 19.32 44.5917 20.746 44.5819 21.967C44.5526 24.4088 44.5428 26.04 44.5428 26.04C44.5233 27.4074 44.3084 28.6674 43.8787 29.7614C43.4587 30.8749 42.8335 31.8419 42.0033 32.6819C40.3331 34.3619 37.9401 35.3874 34.8145 35.7879ZM49.2703 0C49.2703 0 51.3019 0 53.3238 0C55.3456 0 57.3577 0 57.3577 0C57.3577 0 57.7484 1.2307 58.3345 3.06698C58.6275 3.98512 58.9694 5.0693 59.3405 6.21209C59.7019 7.35488 60.0828 8.57581 60.4833 9.79674C60.8642 11.0177 61.2549 12.2386 61.6066 13.3716C61.9777 14.4949 62.3098 15.5693 62.6028 16.4777C63.1791 18.2847 63.5698 19.486 63.5698 19.486H63.687C63.687 19.486 63.6968 18.2651 63.6968 16.4386C63.7163 15.5302 63.7163 14.446 63.7261 13.313C63.7261 12.18 63.7261 10.9591 63.7359 9.73814C63.7261 8.51721 63.7359 7.29628 63.7359 6.16326C63.7456 5.02047 63.7456 3.94605 63.7359 3.03767C63.7456 1.21116 63.7456 0 63.7456 0H69.4889C69.4889 0 69.4791 2.01209 69.4791 5.04C69.4791 6.54419 69.4791 8.31209 69.4694 10.1972C69.4694 12.0921 69.4596 14.114 69.4498 16.126C69.4401 18.1479 69.4303 20.1698 69.4205 22.0549C69.4107 23.9498 69.401 25.7079 69.3912 27.2219C69.3717 30.24 69.3521 32.2716 69.3521 32.2716L62.7005 32.6233C62.7005 32.6233 62.2219 31.1581 61.5187 28.9605C61.167 27.8665 60.747 26.5772 60.3075 25.2C59.868 23.8228 59.3991 22.3479 58.9205 20.8633C58.4517 19.3884 57.9731 17.9037 57.5238 16.5167C57.0842 15.1102 56.6642 13.8014 56.3028 12.6977C55.5898 10.4512 55.1112 8.94698 55.1112 8.94698L55.0038 8.95674C55.0038 8.95674 54.994 10.4609 54.9842 12.7367C54.9842 13.86 54.9745 15.1884 54.9647 16.6144C54.9549 18.0307 54.9452 19.5447 54.9354 21.0586C54.9256 22.5726 54.9061 24.0865 54.8963 25.5028C54.8768 26.9288 54.867 28.2572 54.8573 29.3805C54.828 31.6563 54.8084 33.18 54.8084 33.18L49.0456 33.6684C49.0456 33.6684 49.0749 31.5586 49.114 28.4135C49.1238 26.8312 49.1335 24.9949 49.1531 23.0219C49.1824 21.0391 49.1921 18.9391 49.2117 16.8391C49.2312 14.7293 49.2312 12.6195 49.2508 10.6465C49.2508 8.67349 49.2703 6.82744 49.2703 5.25488C49.2605 2.1 49.2703 0 49.2703 0ZM74.2847 0C74.2847 0 76.3066 0 78.3284 0C80.3503 0 82.3721 0 82.3721 0C82.3721 0 82.7628 1.19163 83.3489 2.9693C83.6419 3.85814 83.9838 4.91302 84.3549 6.03628C84.7163 7.14977 85.107 8.3414 85.5075 9.53302C85.8982 10.7344 86.2889 11.926 86.6503 13.0395C87.0312 14.153 87.3731 15.2079 87.6661 16.0967C88.2521 17.8842 88.6526 19.0758 88.6526 19.0758H88.7698C88.7698 19.0758 88.7698 17.8842 88.7698 16.1065C88.7698 15.2079 88.7601 14.153 88.7698 13.0395C88.7698 11.926 88.7601 10.7344 88.7698 9.54279C88.7698 8.3414 88.7601 7.14977 88.7601 6.03628C88.7698 4.91302 88.7698 3.85814 88.7698 2.9693C88.7698 1.19163 88.7601 0 88.7601 0H94.4935C94.4935 0 94.5131 1.99256 94.5131 4.99116C94.5131 6.47581 94.5131 8.23395 94.5131 10.0995C94.5131 11.9847 94.5228 13.9772 94.5228 15.9795C94.5228 17.9721 94.5326 19.9647 94.5326 21.8498C94.5424 23.7153 94.5424 25.4637 94.5521 26.9581C94.5619 29.9567 94.5521 31.9591 94.5521 31.9591L87.8908 31.8907C87.8908 31.8907 87.4024 30.4353 86.6698 28.2474C86.3084 27.1535 85.8787 25.8837 85.4294 24.5163C84.98 23.1586 84.4917 21.7033 84.0131 20.2577C83.5247 18.8023 83.0461 17.3372 82.587 15.9795C82.1377 14.6121 81.708 13.3326 81.3368 12.2581C80.6238 10.0702 80.1452 8.62465 80.1452 8.62465H80.028C80.028 8.62465 80.028 10.08 80.028 12.2679C80.028 13.3423 80.0182 14.6219 80.0182 15.9991C80.0182 17.3665 79.9987 18.8219 79.9889 20.287C80.0084 21.7423 80.0084 23.1977 79.9987 24.5651C79.9987 25.9326 79.9987 27.2121 79.9889 28.2963C79.9889 30.4842 79.9596 31.9493 79.9596 31.9493L74.1968 32.086C74.1968 32.086 74.2066 30.074 74.2261 27.0656C74.2261 25.5614 74.2261 23.813 74.2456 21.9377C74.2554 20.0526 74.2554 18.0405 74.2652 16.0381C74.2749 14.0358 74.2749 12.0237 74.2847 10.1386C74.2749 8.26326 74.2847 6.50512 74.2847 5.0107C74.2847 1.99256 74.2847 0 74.2847 0ZM99.2894 0C99.2894 0 100.364 0 101.956 0C103.558 0 105.677 0 107.826 0C109.946 0 112.075 0 113.677 0C115.269 0 116.343 0 116.343 0L116.353 4.69814C116.353 4.69814 113.696 4.6786 111.049 4.65907C108.393 4.62977 105.746 4.61023 105.746 4.61023C105.746 4.61023 105.736 6.86651 105.755 9.11302C105.746 11.3693 105.765 13.6158 105.765 13.6158C105.765 13.6158 107.846 13.6744 109.926 13.7233C112.016 13.7623 114.097 13.8307 114.097 13.8307L114.126 18.5191C114.126 18.5191 112.036 18.4409 109.955 18.3726C107.865 18.3042 105.785 18.2456 105.785 18.2456C105.785 18.2456 105.785 19.1247 105.794 20.4433C105.804 21.7619 105.814 23.5298 105.824 25.2879C105.834 27.046 105.853 28.814 105.853 30.1326C105.863 31.4512 105.882 32.3302 105.882 32.3302L99.387 32.086C99.387 32.086 99.3773 30.0642 99.3577 27.0656C99.3577 25.5614 99.3382 23.813 99.3382 21.9279C99.3284 20.0526 99.3284 18.0405 99.3187 16.0284C99.3089 14.026 99.3089 12.0237 99.2991 10.1386C99.2991 8.26326 99.2991 6.50512 99.2991 5.0107C99.2991 1.99256 99.2894 0 99.2894 0ZM119.44 0H125.876C125.876 0 125.896 1.80698 125.896 4.52233C125.896 5.88 125.906 7.46233 125.896 9.16186C125.906 10.8614 125.915 12.6781 125.935 14.4851C125.945 16.2823 125.945 18.1088 125.974 19.8084C125.974 21.4981 126.003 23.0902 126.003 24.4479C126.033 27.1633 126.062 28.98 126.062 28.98C126.062 28.98 128.719 29.2144 131.375 29.4684C134.022 29.7223 136.679 30.0056 136.679 30.0056L136.747 35.0065C136.747 35.0065 135.673 34.8698 134.081 34.6744C132.479 34.4986 130.35 34.2544 128.201 34.02C126.072 33.8051 123.933 33.6 122.321 33.4535C120.729 33.3167 119.654 33.2288 119.654 33.2288C119.654 33.2288 119.635 31.1484 119.596 28.0326C119.576 26.4698 119.567 24.6628 119.547 22.7191C119.527 20.7558 119.508 18.6851 119.498 16.6047C119.479 14.534 119.479 12.4535 119.469 10.5C119.449 8.55628 119.449 6.73953 119.449 5.18651C119.449 2.0707 119.44 0 119.44 0ZM139.57 0H146.027C146.027 0 146.036 2.25628 146.036 5.66512C146.027 7.36465 146.046 9.34744 146.056 11.4767C146.066 13.606 146.075 15.8819 146.095 18.1577C146.105 20.4237 146.124 22.6995 146.144 24.8288C146.163 26.9484 146.183 28.9312 146.202 30.6405C146.241 34.0395 146.251 36.3153 146.251 36.3153L139.834 35.3972C139.834 35.3972 139.805 33.18 139.766 29.8688C139.746 28.2084 139.727 26.2744 139.688 24.2037C139.678 22.1233 139.658 19.906 139.639 17.6986C139.629 15.4814 139.619 13.274 139.609 11.1935C139.59 9.11302 139.6 7.17907 139.59 5.52837C139.59 2.20744 139.57 0 139.57 0ZM156.585 18.5679C156.585 18.5679 156.126 17.3763 155.462 15.5791C154.788 13.8209 153.889 11.467 153.001 9.13256C152.112 6.81767 151.223 4.52233 150.549 2.81302C149.894 1.12326 149.455 0 149.455 0H156.243C156.243 0 157.327 3.07674 158.421 6.19256C159.506 9.32791 160.6 12.5023 160.6 12.5023L160.717 12.5121C160.717 12.5121 161.811 9.42558 162.934 6.31953C164.038 3.16465 165.161 0 165.161 0H171.246C171.246 0 170.807 1.24047 170.142 3.09628C169.478 4.94233 168.589 7.38419 167.71 9.80651C166.821 12.1995 165.942 14.573 165.278 16.3312C164.624 18.0991 164.184 19.2712 164.184 19.2712C164.184 19.2712 164.643 20.5702 165.347 22.5433C166.05 24.5358 166.978 27.2023 167.915 29.9079C168.834 32.633 169.761 35.3679 170.445 37.4581C171.148 39.5484 171.607 40.9549 171.607 40.9549L164.897 39.5679C164.897 39.5679 163.715 35.9149 162.543 32.3009C161.352 28.726 160.18 25.1902 160.18 25.1902L160.062 25.1805C160.062 25.1805 158.871 28.3744 157.708 31.5586C156.546 34.694 155.364 37.7902 155.364 37.7902L149.318 36.7842C149.318 36.7842 149.767 35.6805 150.441 34.02C151.115 32.3302 152.014 30.0935 152.932 27.8177C153.841 25.5419 154.739 23.227 155.433 21.4981C156.116 19.7498 156.585 18.5679 156.585 18.5679Z" fill="#E50914"/>
</svg>
