<svg width="187" height="391" viewBox="0 0 187 391" fill="none" xmlns="http://www.w3.org/2000/svg">
<path d="M24 26C24 26 44.6409 26 65.1998 26C85.9226 26 106.481 26 106.481 26C133.347 26 153.415 32.615 166.93 45.6817C173.646 52.215 178.643 60.2183 182.001 69.855C185.359 79.3283 187.079 90.3533 186.997 103.012C186.997 103.012 186.997 112.893 186.915 127.675C186.915 142.457 186.833 162.22 186.67 181.902C186.588 201.665 186.424 221.428 186.342 236.21C186.26 250.992 186.178 260.873 186.178 260.873C186.014 273.532 184.212 284.883 180.772 294.928C177.332 305.055 172.336 313.875 165.619 321.633C152.104 337.15 132.037 347.358 105.417 352.258C105.417 352.258 85.0216 356.342 64.5445 360.343C44.3132 364.59 24 369 24 369C24 369 24 347.358 24 315.345C24 299.257 24 280.555 24 260.465C24 240.375 24 218.815 24 197.418C24 175.94 24 154.543 24 134.372C24 114.363 24 95.4983 24 79.5733C24 47.3967 24 26 24 26ZM104.761 305.872C113.444 304.402 120.242 300.89 124.747 295.173C129.743 289.62 132.201 281.29 132.201 270.183C132.201 270.183 132.283 259.812 132.446 244.05C132.446 228.37 132.528 207.545 132.692 186.638C132.774 165.813 132.774 144.907 132.856 129.227C132.938 113.547 132.938 103.093 132.938 103.093C133.02 92.0683 130.562 84.1467 125.566 79.41C121.061 74.5917 114.263 72.3867 105.499 72.55L77.8956 73.3667C77.8956 73.3667 77.8956 88.1483 77.8956 110.362C77.8956 121.468 77.8956 134.453 77.8137 148.337C77.8137 162.302 77.8956 177.002 77.7317 191.865C77.7317 206.647 77.7317 221.428 77.6498 235.393C77.5679 249.277 77.5679 262.262 77.5679 273.368C77.486 295.5 77.4041 310.363 77.4041 310.363L104.761 305.872Z" fill="#80030A"/>
<g filter="url(#filter0_d_3_2431)">
<path d="M24 26C24 26 57.155 26 77.7538 26C77.7538 26 77.7538 270.082 77.7538 360.343C57.4833 364.59 24 369 24 369C24 369 24 347.358 24 315.345C24 299.257 24 280.555 24 260.465C24 240.375 24 218.815 24 197.418C24 175.94 24 154.543 24 134.372C24 114.363 24 95.4983 24 79.5733C24 47.3967 24 26 24 26ZM78 73.3667C78 73.3667 78 88.1483 78 110.362C78 121.468 78 134.453 77.9179 148.337C77.9179 162.302 78 177.002 77.8359 191.865C77.8359 206.647 77.8359 221.428 77.7538 235.393C77.6717 249.277 77.6717 262.262 77.6717 273.368C77.5897 295.5 77.5076 310.363 77.5076 310.363L78 73.3667Z" fill="#E50914"/>
</g>
<defs>
<filter id="filter0_d_3_2431" x="0" y="0" width="102" height="391" filterUnits="userSpaceOnUse" color-interpolation-filters="sRGB">
<feFlood flood-opacity="0" result="BackgroundImageFix"/>
<feColorMatrix in="SourceAlpha" type="matrix" values="0 0 0 0 0 0 0 0 0 0 0 0 0 0 0 0 0 0 127 0" result="hardAlpha"/>
<feOffset dy="-2"/>
<feGaussianBlur stdDeviation="12"/>
<feColorMatrix type="matrix" values="0 0 0 0 0 0 0 0 0 0 0 0 0 0 0 0 0 0 0.7 0"/>
<feBlend mode="normal" in2="BackgroundImageFix" result="effect1_dropShadow_3_2431"/>
<feBlend mode="normal" in="SourceGraphic" in2="effect1_dropShadow_3_2431" result="shape"/>
</filter>
</defs>
</svg>
